# xmcd CD database file
#
# Track frame offsets:
#	150
#	24618
#	33163
#	62726
#	75952
#	98091
#	121623
#	129539
#	152949
#	171048
#
# Disc length: 2662 seconds
#
# Revision: 0
# Processed by: cddbd v1.5.2PL0 Copyright (c) Steve Scherf et al.
# Submitted via: CDex 1.70beta2
#
DISCID=6e0a640a
DTITLE=CL BOB - The Great Flash
DYEAR=2005
DGENRE=Jazz
TTITLE0=Craters On The Moon
TTITLE1=Greed
TTITLE2=Unheard Voice
TTITLE3=Old Bob
TTITLE4=Raewyn
TTITLE5=Psyion
TTITLE6=No-No
TTITLE7=Ted and Sylvia
TTITLE8=Hira
TTITLE9=Carpet Master is Vanquished - Rag for Randy Newman
EXTD=YEAR: 2005
EXTT0=
EXTT1=
EXTT2=
EXTT3=
EXTT4=
EXTT5=
EXTT6=
EXTT7=
EXTT8=
EXTT9=
PLAYORDER=
